<?xml version="1.0" encoding="UTF-8" standalone="no"?>
<!DOCTYPE svg PUBLIC "-//W3C//DTD SVG 1.1//EN" "http://www.w3.org/Graphics/SVG/1.1/DTD/svg11.dtd">
<!-- Created with Vectornator (http://vectornator.io/) -->
<svg height="0.7200386597938144in" stroke-miterlimit="10" style="fill-rule:nonzero;clip-rule:evenodd;stroke-linecap:round;stroke-linejoin:round;" version="1.1" viewBox="0 0 238.237 51.8428" width="3.308851481958762in" xml:space="preserve" xmlns="http://www.w3.org/2000/svg" xmlns:xlink="http://www.w3.org/1999/xlink">
<defs/>
<g id="Layer-1">
<g opacity="1">
<g opacity="1">
<path d="M1.82121 36.4884L1.82121 35.4804L3.11721 35.0964C3.78921 34.9044 4.30921 34.6164 4.67721 34.2324C5.04521 33.8484 5.34121 33.3204 5.56521 32.6484L15.2612 4.6164L19.2452 4.6164L28.8932 32.8404C29.1492 33.5444 29.4372 34.0804 29.7572 34.4484C30.0772 34.8164 30.5892 35.1124 31.2932 35.3364L32.0132 35.5284L32.0132 36.4884L19.8212 36.4884L19.8212 35.5284L20.6372 35.2884C21.3412 35.0644 21.7652 34.7124 21.9092 34.2324C22.0532 33.7524 22.0132 33.1604 21.7892 32.4564L19.7732 26.2644L9.16521 26.2644L7.10121 32.3604C6.87721 33.0644 6.81321 33.6404 6.90921 34.0884C7.00521 34.5364 7.40521 34.8884 8.10921 35.1444L9.16521 35.4804L9.16521 36.4884L1.82121 36.4884ZM9.64521 24.8724L19.3412 24.8724L14.6372 10.4244L9.64521 24.8724Z" fill="#4cd9f4" fill-rule="nonzero" opacity="1" stroke="none"/>
<path d="M33.7412 36.4884L33.7412 35.5764L34.4612 35.3844C35.5172 35.0324 36.0452 34.2324 36.0452 32.9844C36.0452 31.8964 36.0532 30.8004 36.0692 29.6964C36.0852 28.5924 36.0932 27.4964 36.0932 26.4084L36.0932 8.1684C36.0932 7.4964 35.9812 6.9924 35.7572 6.6564C35.5332 6.3204 35.1012 6.0724 34.4612 5.9124L33.7412 5.7204L33.7412 4.8084L42.1412 2.7924L42.7652 3.2244L42.5732 9.9924L42.5732 32.9844C42.6052 33.6244 42.7412 34.1444 42.9812 34.5444C43.2212 34.9444 43.6452 35.2244 44.2532 35.3844L44.9252 35.5764L44.9252 36.4884L33.7412 36.4884Z" fill="#4cd9f4" fill-rule="nonzero" opacity="1" stroke="none"/>
<path d="M46.3652 47.5764L46.3652 46.6644L46.9892 46.4724C47.6292 46.3124 48.0772 46.0484 48.3332 45.6804C48.5892 45.3124 48.7172 44.7924 48.7172 44.1204C48.7172 42.8084 48.7252 41.5684 48.7412 40.4004C48.7572 39.2324 48.7652 38.1044 48.7652 37.0164L48.7652 23.8164C48.7652 22.8244 48.7652 21.9684 48.7652 21.2484C48.7652 20.5284 48.7492 19.7204 48.7172 18.8244C48.7172 18.1524 48.6052 17.6324 48.3812 17.2644C48.1572 16.8964 47.7252 16.6484 47.0852 16.5204L46.3652 16.3764L46.3652 15.5124L54.0932 12.7284L54.6692 13.2084L55.1012 14.9844C57.3092 13.4804 59.8052 12.7284 62.5892 12.7284C65.3092 12.7284 67.4932 13.7524 69.1412 15.8004C70.7892 17.8484 71.6132 20.8724 71.6132 24.8724C71.6132 28.7444 70.7092 31.7604 68.9012 33.9204C67.0932 36.0804 64.6372 37.1604 61.5332 37.1604C60.2852 37.1604 59.1092 37.0484 58.0052 36.8244C56.9012 36.6004 55.9172 36.2644 55.0532 35.8164L55.0532 37.2564C55.0532 38.2164 55.0612 39.2564 55.0772 40.3764C55.0932 41.4964 55.1012 42.7124 55.1012 44.0244C55.1012 45.3044 55.6612 46.1044 56.7812 46.4244L57.6932 46.6644L57.6932 47.5764L46.3652 47.5764ZM59.2772 35.2404C60.9732 35.2404 62.3092 34.4804 63.2852 32.9604C64.2612 31.4404 64.7492 28.8084 64.7492 25.0644C64.7492 21.3524 64.2852 18.7524 63.3572 17.2644C62.4292 15.7764 61.1172 15.0324 59.4212 15.0324C58.8132 15.0324 58.1572 15.1284 57.4532 15.3204C56.7492 15.5124 55.9972 15.8324 55.1972 16.2804L55.1972 34.4244C56.4772 34.9684 57.8372 35.2404 59.2772 35.2404Z" fill="#4cd9f4" fill-rule="nonzero" opacity="1" stroke="none"/>
<path d="M73.6772 36.4884L73.6772 35.5284L74.3012 35.3364C75.4532 34.9844 76.0292 34.1844 76.0292 32.9364L76.0292 8.2164C76.0292 7.5444 75.9172 7.0404 75.6932 6.7044C75.4692 6.3684 75.0372 6.1204 74.3972 5.9604L73.6772 5.7684L73.6772 4.8564L81.7892 2.7924L82.5572 3.2244L82.3652 9.9924L82.3652 16.1364C83.4852 15.2084 84.7092 14.4084 86.0372 13.7364C87.3652 13.0644 88.7972 12.7284 90.3332 12.7284C92.4452 12.7284 94.1012 13.3204 95.3012 14.5044C96.5012 15.6884 97.1012 17.5124 97.1012 19.9764L97.1012 32.9844C97.1012 33.6244 97.2292 34.1364 97.4852 34.5204C97.7412 34.9044 98.1892 35.1924 98.8292 35.3844L99.2612 35.5284L99.2612 36.4884L88.3172 36.4884L88.3172 35.5284L88.8932 35.3364C90.0452 35.0164 90.6212 34.2164 90.6212 32.9364L90.6212 19.0644C90.6212 17.7524 90.3972 16.8404 89.9492 16.3284C89.5012 15.8164 88.7172 15.5604 87.5972 15.5604C86.8292 15.5604 86.0212 15.7044 85.1732 15.9924C84.3252 16.2804 83.4372 16.7604 82.5092 17.4324L82.5092 33.0324C82.5092 33.6724 82.6372 34.1844 82.8932 34.5684C83.1492 34.9524 83.5812 35.2244 84.1892 35.3844L84.6212 35.5284L84.6212 36.4884L73.6772 36.4884Z" fill="#4cd9f4" fill-rule="nonzero" opacity="1" stroke="none"/>
<path d="M107.901 37.1604C106.077 37.1604 104.533 36.6404 103.269 35.6004C102.005 34.5604 101.373 33.0644 101.373 31.1124C101.373 29.5764 102.117 28.1604 103.605 26.8644C105.093 25.5684 107.437 24.6164 110.637 24.0084C111.181 23.8804 111.813 23.7604 112.533 23.6484C113.253 23.5364 113.965 23.4164 114.669 23.2884L114.669 19.8804C114.669 17.7044 114.397 16.2004 113.853 15.3684C113.309 14.5364 112.445 14.1204 111.261 14.1204L111.117 14.1204C110.381 14.1204 109.797 14.3524 109.365 14.8164C108.933 15.2804 108.653 16.0404 108.525 17.0964L108.381 17.7204C108.285 19.0004 107.949 19.9364 107.373 20.5284C106.797 21.1204 106.077 21.4164 105.213 21.4164C104.413 21.4164 103.749 21.1684 103.221 20.6724C102.693 20.1764 102.429 19.5284 102.429 18.7284C102.429 17.4164 102.877 16.3124 103.773 15.4164C104.669 14.5204 105.861 13.8484 107.349 13.4004C108.837 12.9524 110.445 12.7284 112.173 12.7284C115.021 12.7284 117.197 13.4164 118.701 14.7924C120.205 16.1684 120.957 18.4084 120.957 21.5124L120.957 32.2164C120.957 33.5924 121.613 34.2804 122.925 34.2804L124.029 34.2804L124.509 34.8084C123.933 35.5444 123.293 36.1124 122.589 36.5124C121.885 36.9124 120.925 37.1124 119.709 37.1124C118.333 37.1124 117.237 36.7844 116.421 36.1284C115.605 35.4724 115.069 34.6004 114.813 33.5124C113.789 34.6004 112.781 35.4804 111.789 36.1524C110.797 36.8244 109.501 37.1604 107.901 37.1604ZM110.685 34.0884C111.325 34.0884 111.933 33.9444 112.509 33.6564C113.085 33.3684 113.805 32.8884 114.669 32.2164L114.669 24.5364C113.837 24.6644 112.989 24.8244 112.125 25.0164C110.749 25.3364 109.637 25.9284 108.789 26.7924C107.941 27.6564 107.517 28.8244 107.517 30.2964C107.517 31.5764 107.813 32.5284 108.405 33.1524C108.997 33.7764 109.757 34.0884 110.685 34.0884Z" fill="#4cd9f4" fill-rule="nonzero" opacity="1" stroke="none"/>
<path d="M125.709 36.4884L125.709 35.4804L126.621 35.2404C127.261 35.0484 127.677 34.7604 127.869 34.3764C128.061 33.9924 128.173 33.4644 128.205 32.7924C128.237 30.9684 128.253 29.1204 128.253 27.2484C128.253 25.3764 128.253 23.4964 128.253 21.6084L128.253 19.6404C128.253 17.7844 128.253 15.9284 128.253 14.0724C128.253 12.2164 128.237 10.3604 128.205 8.5044C128.173 7.8324 128.077 7.3124 127.917 6.9444C127.757 6.5764 127.373 6.2964 126.765 6.1044L125.709 5.7684L125.709 4.7604L148.797 4.7604L149.133 12.8724L147.837 12.8724L145.341 8.1204C145.021 7.5124 144.669 7.0404 144.285 6.7044C143.901 6.3684 143.341 6.2004 142.605 6.2004L135.213 6.2004C135.181 8.3444 135.157 10.5444 135.141 12.8004C135.125 15.0564 135.117 17.3044 135.117 19.5444L139.725 19.5444C140.461 19.5444 141.005 19.3764 141.357 19.0404C141.709 18.7044 142.045 18.2324 142.365 17.6244L143.325 15.8484L144.381 15.8484L144.381 24.6324L143.325 24.6324L142.365 22.9044C142.013 22.2644 141.669 21.7764 141.333 21.4404C140.997 21.1044 140.461 20.9364 139.725 20.9364L135.117 20.9364C135.117 23.0484 135.117 25.0724 135.117 27.0084C135.117 28.9444 135.133 30.8404 135.165 32.6964C135.165 34.0084 135.757 34.8244 136.941 35.1444L138.381 35.4804L138.381 36.4884L125.709 36.4884Z" fill="#4cd9f4" fill-rule="nonzero" opacity="1" stroke="none"/>
<path d="M160.941 37.1604C158.573 37.1604 156.501 36.6644 154.725 35.6724C152.949 34.6804 151.573 33.2724 150.597 31.4484C149.621 29.6244 149.133 27.4484 149.133 24.9204C149.133 22.3924 149.653 20.2164 150.693 18.3924C151.733 16.5684 153.141 15.1684 154.917 14.1924C156.693 13.2164 158.701 12.7284 160.941 12.7284C163.181 12.7284 165.189 13.2164 166.965 14.1924C168.741 15.1684 170.149 16.5604 171.189 18.3684C172.229 20.1764 172.749 22.3604 172.749 24.9204C172.749 27.4484 172.261 29.6324 171.285 31.4724C170.309 33.3124 168.941 34.7204 167.181 35.6964C165.421 36.6724 163.341 37.1604 160.941 37.1604ZM160.941 35.8164C162.093 35.8164 163.029 35.5044 163.749 34.8804C164.469 34.2564 164.989 33.1604 165.309 31.5924C165.629 30.0244 165.789 27.8324 165.789 25.0164C165.789 22.1684 165.629 19.9524 165.309 18.3684C164.989 16.7844 164.469 15.6804 163.749 15.0564C163.029 14.4324 162.093 14.1204 160.941 14.1204C159.789 14.1204 158.861 14.4324 158.157 15.0564C157.453 15.6804 156.933 16.7844 156.597 18.3684C156.261 19.9524 156.093 22.1684 156.093 25.0164C156.093 27.8324 156.261 30.0244 156.597 31.5924C156.933 33.1604 157.453 34.2564 158.157 34.8804C158.861 35.5044 159.789 35.8164 160.941 35.8164Z" fill="#4cd9f4" fill-rule="nonzero" opacity="1" stroke="none"/>
<path d="M174.813 36.4884L174.813 35.5764L175.533 35.3844C176.589 35.0324 177.117 34.2324 177.117 32.9844C177.117 31.8964 177.125 30.8004 177.141 29.6964C177.157 28.5924 177.165 27.4964 177.165 26.4084L177.165 8.1684C177.165 7.4964 177.053 6.9924 176.829 6.6564C176.605 6.3204 176.173 6.0724 175.533 5.9124L174.813 5.7204L174.813 4.8084L183.213 2.7924L183.837 3.2244L183.645 9.9924L183.645 32.9844C183.677 33.6244 183.813 34.1444 184.053 34.5444C184.293 34.9444 184.717 35.2244 185.325 35.3844L185.997 35.5764L185.997 36.4884L174.813 36.4884Z" fill="#4cd9f4" fill-rule="nonzero" opacity="1" stroke="none"/>
<path d="M198.237 37.1604C196.349 37.1604 194.653 36.7364 193.149 35.8884C191.645 35.0404 190.469 33.7284 189.621 31.9524C188.773 30.1764 188.349 27.9124 188.349 25.1604C188.349 22.4084 188.829 20.1124 189.789 18.2724C190.749 16.4324 192.029 15.0484 193.629 14.1204C195.229 13.1924 196.989 12.7284 198.909 12.7284C200.061 12.7284 201.165 12.8644 202.221 13.1364C203.277 13.4084 204.205 13.8164 205.005 14.3604L205.005 8.1204C205.005 7.4484 204.901 6.9604 204.693 6.6564C204.485 6.3524 204.061 6.1204 203.421 5.9604L202.461 5.7684L202.461 4.8564L210.813 2.7924L211.437 3.2244L211.245 9.9924L211.245 33.0804C211.245 33.6884 211.357 34.1924 211.581 34.5924C211.805 34.9924 212.205 35.2724 212.781 35.4324L213.309 35.5764L213.309 36.4884L205.341 37.0164L204.909 35.0004C204.045 35.6724 203.053 36.2004 201.933 36.5844C200.813 36.9684 199.581 37.1604 198.237 37.1604ZM200.877 34.9524C202.253 34.9524 203.549 34.5044 204.765 33.6084L204.765 15.7524C203.581 15.0164 202.301 14.6484 200.925 14.6484C199.357 14.6484 198.013 15.4724 196.893 17.1204C195.773 18.7684 195.213 21.4164 195.213 25.0644C195.213 28.7124 195.741 31.2724 196.797 32.7444C197.853 34.2164 199.213 34.9524 200.877 34.9524Z" fill="#4cd9f4" fill-rule="nonzero" opacity="1" stroke="none"/>
</g>
<g opacity="1">
<path d="M217.55 30.5501L217.802 25.4741C218.522 25.0661 219.428 24.7241 220.52 24.4481C221.612 24.1721 222.818 24.0341 224.138 24.0341C226.922 24.0341 228.938 24.6221 230.186 25.7981C231.434 26.9741 232.058 28.4501 232.058 30.2261C232.058 31.8821 231.314 33.4901 229.826 35.0501C228.338 36.6101 226.202 38.4101 223.418 40.4501C222.89 40.8341 222.284 41.2961 221.6 41.8361C220.916 42.3761 220.25 42.9221 219.602 43.4741L232.706 43.4741L232.706 47.4341L217.01 47.4341L217.01 44.5181C218.786 42.7901 220.43 41.1461 221.942 39.5861C223.694 37.7861 224.99 36.1841 225.83 34.7801C226.67 33.3761 227.09 31.8941 227.09 30.3341C227.09 28.7501 226.79 27.4781 226.19 26.5181C225.59 25.5581 224.714 25.0781 223.562 25.0781C222.794 25.0781 222.116 25.2581 221.528 25.6181C220.94 25.9781 220.454 26.5901 220.07 27.4541L218.666 30.5501L217.55 30.5501Z" fill="#4cd9f4" fill-rule="nonzero" opacity="1" stroke="none"/>
</g>
</g>
</g>
</svg>
