<?xml version="1.0" encoding="UTF-8" standalone="no"?>
<!DOCTYPE svg PUBLIC "-//W3C//DTD SVG 1.1//EN" "http://www.w3.org/Graphics/SVG/1.1/DTD/svg11.dtd">
<!-- Created with Vectornator (http://vectornator.io/) -->
<svg height="100%" stroke-miterlimit="10" style="fill-rule:nonzero;clip-rule:evenodd;stroke-linecap:round;stroke-linejoin:round;" version="1.1" viewBox="0 0 1574 594" width="100%" xml:space="preserve" xmlns="http://www.w3.org/2000/svg" xmlns:vectornator="http://vectornator.io" xmlns:xlink="http://www.w3.org/1999/xlink">
<defs/>
<g id="Untitled" vectornator:layerName="Untitled">
<path d="M1443.73 514.917C1441.14 511.392 1437.59 508.693 1433.5 507.147C1425.02 503.746 1415.54 503.872 1407.15 507.497C1403.04 509.297 1399.35 511.917 1396.29 515.197C1393.22 518.529 1390.84 522.433 1389.29 526.687C1387.62 531.268 1386.79 536.112 1386.84 540.987C1386.78 546.04 1387.58 551.066 1389.22 555.847C1390.68 560.121 1392.99 564.054 1396.02 567.407C1398.97 570.635 1402.58 573.193 1406.6 574.907C1410.99 576.733 1415.71 577.638 1420.47 577.567C1425.37 577.662 1430.23 576.582 1434.63 574.417C1438.56 572.467 1441.97 569.608 1444.58 566.077L1458.74 576.027C1454.42 581.478 1448.9 585.864 1442.62 588.847C1436.26 591.887 1428.83 593.406 1420.33 593.406C1413.03 593.487 1405.77 592.177 1398.96 589.547C1386.31 584.72 1376.27 574.809 1371.28 562.227C1368.59 555.472 1367.26 548.256 1367.35 540.987C1367.25 533.609 1368.65 526.289 1371.49 519.477C1374.09 513.291 1377.95 507.718 1382.83 503.117C1387.75 498.566 1393.53 495.041 1399.83 492.747C1406.66 490.268 1413.88 489.036 1421.14 489.107C1424.47 489.12 1427.8 489.424 1431.08 490.017C1434.5 490.608 1437.85 491.546 1441.08 492.817C1444.23 494.065 1447.25 495.636 1450.08 497.507C1452.83 499.328 1455.25 501.604 1457.23 504.237L1443.73 514.917Z" fill="#ffffff" fill-rule="nonzero" opacity="1" stroke="none" vectornator:layerName="path"/>
<path d="M1495.87 574.907L1549.87 507.067L1496.75 507.067L1496.75 491.657L1570.89 491.657L1570.89 507.657L1516.65 575.217L1571.73 575.217L1571.73 590.917L1495.91 590.917L1495.87 574.907Z" fill="#ffffff" fill-rule="nonzero" opacity="1" stroke="none" vectornator:layerName="path"/>
<path d="M581.57 411.968L581.57 217.819L628.74 217.819L628.74 411.968L581.57 411.968Z" fill="#ffffff" fill-rule="nonzero" opacity="1" stroke="none" vectornator:layerName="path"/>
<path d="M833.3 411.968L755.15 284.968L754.33 284.968L755.42 411.968L709.95 411.968L709.95 217.819L763.42 217.819L841.29 344.508L842.12 344.508L840.95 217.819L886.47 217.819L886.47 411.968L833.3 411.968Z" fill="#ffffff" fill-rule="nonzero" opacity="1" stroke="none" vectornator:layerName="path"/>
<path d="M1014.01 257.858L1014.01 297.858L1089.15 297.858L1089.15 336.518L1014.01 336.518L1014.01 411.928L967.67 411.928L967.67 217.819L1095.45 217.819L1095.45 257.818L1014.01 257.858Z" fill="#ffffff" fill-rule="nonzero" opacity="1" stroke="none" vectornator:layerName="path"/>
<path d="M1270.67 411.968L1228.52 334.908L1212.52 334.908L1212.52 411.968L1166.75 411.968L1166.75 217.819L1240.75 217.819C1249.92 217.803 1259.07 218.769 1268.03 220.699C1276.51 222.463 1284.6 225.764 1291.89 230.439C1298.91 234.994 1304.7 241.207 1308.75 248.529C1312.95 256.028 1315.05 265.362 1315.06 276.528C1315.06 289.695 1311.49 300.755 1304.36 309.708C1297.23 318.661 1287.36 325.061 1274.75 328.908L1325.48 411.998L1270.67 411.968ZM1268.76 277.318C1268.76 272.758 1267.79 269.058 1265.86 266.218C1263.98 263.429 1261.42 261.164 1258.42 259.638C1255.22 258.036 1251.77 256.968 1248.22 256.478C1244.62 255.947 1240.98 255.673 1237.34 255.658L1212.26 255.658L1212.26 300.908L1234.59 300.908C1238.56 300.885 1242.52 300.551 1246.44 299.908C1250.26 299.334 1253.97 298.177 1257.44 296.478C1260.72 294.851 1263.52 292.393 1265.56 289.348C1267.69 286.275 1268.76 282.265 1268.76 277.318Z" fill="#ffffff" fill-rule="nonzero" opacity="1" stroke="none" vectornator:layerName="path"/>
<path d="M1521.3 411.968L1506.23 373.848L1431.09 373.848L1416.83 411.968L1365.83 411.968L1447.27 217.819L1492.79 217.819L1573.41 411.968L1521.3 411.968ZM1469.2 269.648L1444.53 336.278L1493.34 336.278L1469.2 269.648Z" fill="#ffffff" fill-rule="nonzero" opacity="1" stroke="none" vectornator:layerName="path"/>
<path d="M374.09 129.949C365.726 129.946 357.371 130.534 349.09 131.709C328.82 55.9497 259.6 0 177.55 0C79.64-1.7053e-13 5.68434e-14 79.6495 0 177.549C0.0284755 239.332 32.1672 296.659 84.86 328.918C71.2832 354.475 64.2018 382.979 64.24 411.918C64.24 509.817 143.89 589.477 241.79 589.477C314.65 589.477 377.39 545.357 404.72 482.477C488.08 467.907 551.64 395.038 551.64 307.578C551.64 209.589 471.95 129.949 374.09 129.949ZM257 345.318C259.604 349.515 262.98 353.179 266.95 356.118C275.361 362.444 285.605 365.857 296.13 365.838C305.69 365.838 313.73 364.078 320.36 360.528C326.709 357.201 332.234 352.496 336.53 346.758L378.38 373.208C369.809 385.66 358.073 395.602 344.38 402.008C330.333 408.728 314 412.094 295.38 412.108C282.127 412.2 268.956 410.019 256.44 405.658C244.6 401.622 233.683 395.264 224.33 386.958C214.994 378.551 207.603 368.211 202.67 356.658C197.377 344.658 194.743 330.951 194.77 315.538C194.77 300.628 197.37 287.088 202.49 275.008C207.272 263.392 214.393 252.885 223.41 244.139C232.411 235.589 243.024 228.916 254.63 224.509C267.051 219.774 280.247 217.4 293.54 217.509C306.222 217.372 318.812 219.681 330.62 224.309C341.601 228.661 351.499 235.36 359.62 243.939C367.959 252.968 374.39 263.586 378.53 275.158C383.05 287.398 385.317 301.348 385.33 317.008L385.33 324.348C385.333 326.687 385.202 329.024 384.94 331.348L252.39 331.348C252.817 336.3 254.396 341.084 257 345.318ZM341.71 177.549C341.71 181.109 341.58 184.659 341.36 188.169C324.854 192.736 309.481 200.692 296.22 211.529C300.935 195.163 302.179 177.993 299.87 161.119C312.222 154.814 325.328 150.109 338.87 147.119C340.753 157.153 341.704 167.34 341.71 177.549ZM13.41 177.549C13.41 87.0395 87.03 13.3899 177.56 13.3899C253.03 13.3899 316.76 64.6096 335.87 134.099C322.533 137.03 309.582 141.503 297.28 147.429C283.537 92.8097 234.566 54.4184 178.245 54.111C121.923 53.8036 72.536 91.658 58.1979 146.124C43.8598 200.59 68.2074 257.855 117.38 285.318C107.571 294.954 98.9105 305.692 91.57 317.318C43.0237 287.452 13.4387 234.546 13.41 177.549ZM188.56 300.478C170.531 309.12 154.862 321.996 142.89 338.008C129.125 335.045 115.803 330.305 103.26 323.908C110.845 312.022 119.919 301.154 130.26 291.568C145.261 297.799 161.347 300.997 177.59 300.978C181.26 300.978 184.95 300.798 188.56 300.478ZM241.79 576.027C151.28 576.027 77.64 502.377 77.64 411.868C77.6112 385.254 84.0892 359.036 96.51 335.498C108.743 341.796 121.671 346.643 135.03 349.938C101.756 407.202 119.611 480.521 175.489 516.074C231.367 551.627 305.346 536.738 343.12 482.337C353.355 484.141 363.727 485.048 374.12 485.047C379.14 485.047 384.113 484.834 389.04 484.407C361.379 540.469 304.305 575.981 241.79 576.027ZM395.19 470.287C388.194 471.201 381.145 471.655 374.09 471.647C366.263 471.649 358.447 471.091 350.7 469.977C357.239 457.767 361.658 444.536 363.77 430.847C367.3 431.147 370.87 431.337 374.49 431.337C384.847 431.334 395.164 430.037 405.2 427.477C403.81 442.134 400.443 456.534 395.19 470.287ZM410.38 467.597C415.137 453.201 418.018 438.251 418.95 423.117C458.658 407.786 487.726 373.16 495.95 331.398L414.11 331.398L414.11 293.398L497.52 293.398C490.35 230.891 437.438 183.701 374.52 183.699C367.968 183.689 361.424 184.191 354.95 185.199C355.06 182.669 355.13 180.109 355.13 177.549C355.134 166.57 354.13 155.614 352.13 144.819C359.422 143.838 366.772 143.347 374.13 143.349C464.63 143.349 538.28 216.989 538.28 307.498C538.24 385.548 483.49 451.027 410.38 467.597ZM293.89 259.038C288.38 258.976 282.905 259.915 277.73 261.808C273.048 263.518 268.718 266.066 264.95 269.328C261.311 272.454 258.315 276.258 256.13 280.528C253.969 284.685 252.712 289.252 252.44 293.928L329.85 293.928C330.034 284.891 326.822 276.113 320.85 269.328C314.857 262.462 305.87 259.032 293.89 259.038Z" fill="#ffffff" fill-rule="nonzero" opacity="1" stroke="none" vectornator:layerName="path"/>
</g>
</svg>
